<svg id="Layer_1" enable-background="new 0 0 510 510" height="512" viewBox="0 0 510 510" width="512" xmlns="http://www.w3.org/2000/svg"><g><path d="m0 0v90h60v135c10.742 258.758 379.355 258.558 390 0v-135h60v-90zm150 352.186v-67.186c5.785-139.331 204.268-139.223 210 0v67.186c-57.772 49.997-152.24 49.987-210 0zm270-127.186c0 35.237-11.109 67.925-30 94.758v-34.758c-7.437-179.14-262.63-179.002-270 0v34.758c-18.891-26.833-30-59.521-30-94.758v-135h330zm60-165c-16.538 0-435.228 0-450 0v-30h450z"/><path d="m255 225c-33.084 0-60 26.916-60 60 3.296 79.598 116.716 79.575 120 0 0-33.084-26.916-60-60-60zm0 90c-16.542 0-30-13.458-30-30 1.648-39.799 58.358-39.787 60 0 0 16.542-13.458 30-30 30z"/><path d="m420 405c0 8.271-6.728 15-15 15v30c24.814 0 45-20.187 45-45z"/><path d="m405 480v30c57.897 0 105-47.103 105-105h-30c0 41.355-33.645 75-75 75z"/><path d="m90 405h-30c0 24.813 20.187 45 45 45v-30c-8.271 0-15-6.729-15-15z"/><path d="m30 405h-30c0 57.897 47.103 105 105 105v-30c-41.355 0-75-33.645-75-75z"/></g></svg>