<svg viewBox="0 0 511 512" xmlns="http://www.w3.org/2000/svg"><path d="m192.347656 434.851562h128.699219v29.894532h-128.699219zm0 0"/><path d="m142.34375 435.101562h29.398438v29.394532h-29.398438zm0 0"/><path d="m341.652344 435.101562h29.398437v29.394532h-29.398437zm0 0"/><path d="m166.632812 347.070312h29.398438v29.398438h-29.398438zm0 0"/><path d="m116.808594 347.070312h29.394531v29.398438h-29.394531zm0 0"/><path d="m216.460938 347.070312h29.398437v29.398438h-29.398437zm0 0"/><path d="m266.289062 347.070312h29.398438v29.398438h-29.398438zm0 0"/><path d="m316.117188 347.070312h29.398437v29.398438h-29.398437zm0 0"/><path d="m365.945312 347.070312h29.398438v29.398438h-29.398438zm0 0"/><path d="m415.769531 347.070312h29.398438v29.398438h-29.398438zm0 0"/><path d="m116.808594 390.421875h29.394531v29.398437h-29.394531zm0 0"/><path d="m67.726562 347.070312h29.398438v29.398438h-29.398438zm0 0"/><path d="m67.726562 390.421875h29.398438v29.398437h-29.398438zm0 0"/><path d="m166.632812 390.421875h29.398438v29.398437h-29.398438zm0 0"/><path d="m216.460938 390.421875h29.398437v29.398437h-29.398437zm0 0"/><path d="m266.289062 390.421875h29.398438v29.398437h-29.398438zm0 0"/><path d="m316.117188 390.421875h29.398437v29.398437h-29.398437zm0 0"/><path d="m365.945312 390.421875h29.398438v29.398437h-29.398438zm0 0"/><path d="m415.769531 390.421875h29.398438v29.398437h-29.398438zm0 0"/><path d="m409.226562 261.761719c35.433594 0 64.257813-28.828125 64.257813-64.257813v-14.304687c21.980469-6.472657 38.078125-26.820313 38.078125-50.871094v-77.367187h-9.417969v-54.960938h-87.214843v54.960938h-9.421876v77.367187c0 24.050781 16.097657 44.398437 38.082032 50.871094v14.304687c0 18.945313-15.414063 34.359375-34.363282 34.359375-18.945312 0-34.359374-15.414062-34.359374-34.359375v-132.585937c0-35.796875-29.121094-64.917969-64.917969-64.917969-35.792969 0-64.917969 29.121094-64.917969 64.917969v175.25h-31.84375v58.070312h-212.6875v213.761719h511.894531v-213.761719h-205.621093v-58.070312h-31.84375v-175.25c0-19.3125 15.710937-35.019531 35.019531-35.019531 19.3125 0 35.023437 15.707031 35.023437 35.019531v132.585937c0 35.429688 28.824219 64.257813 64.253906 64.257813zm35.597657-231.867188h27.421875v25.066407h-27.421875zm-9.421875 102.433594v-47.472656h46.265625v47.472656c0 12.757813-10.378907 23.132813-23.132813 23.132813s-23.132812-10.375-23.132812-23.132813zm47.097656 349.777344h-452.105469v-153.96875h452.105469zm-205.621094-183.867188h-33.792968v-28.175781h33.792968zm0 0"/></svg>