<svg id="Capa_1" enable-background="new 0 0 512 512" height="512" viewBox="0 0 512 512" width="512" xmlns="http://www.w3.org/2000/svg"><g><path d="m494.463 409.603-123.573-123.574-10.607 10.607-40.889-40.889 25.19-25.196c14.758 6.326 30.784 9.655 47.324 9.655 32.083 0 62.246-12.494 84.932-35.181 18.665-18.664 30.437-42.319 34.042-68.407 3.485-25.224-1.237-51.39-13.3-73.676l-9.574-17.691-72.715 72.715-17.717-3.543-3.543-17.716 72.717-72.715-17.691-9.575c-22.288-12.063-48.458-16.783-73.677-13.299-26.088 3.605-49.742 15.376-68.406 34.041-22.687 22.686-35.181 52.849-35.181 84.933 0 16.278 3.222 32.06 9.354 46.624l-25.396 25.39-52.088-52.089-26.136-77.339-126.757-62.678-50.772 50.765 62.686 126.757 77.339 26.136 52.092 52.092-25.399 25.4c-14.564-6.133-30.347-9.355-46.626-9.355-32.083 0-62.246 12.494-84.932 35.181-18.665 18.664-30.437 42.319-34.042 68.407-3.485 25.224 1.237 51.39 13.3 73.676l9.574 17.691 72.715-72.715 17.717 3.543 3.543 17.716-72.717 72.714 17.691 9.575c17.501 9.472 37.391 14.418 57.341 14.417 5.456 0 10.92-.37 16.336-1.119 26.088-3.605 49.742-15.376 68.406-34.041 22.687-22.686 35.181-52.849 35.181-84.933 0-16.54-3.329-32.565-9.654-47.323l25.203-25.198 40.889 40.889-10.606 10.606 123.573 123.575c11.7 11.699 27.067 17.544 42.428 17.544 15.338 0 30.669-5.831 42.321-17.483l.104-.103c23.383-23.383 23.383-61.429 0-84.811zm-176.607-70.541-148.492-148.492 21.213-21.214 148.492 148.493zm10.332-282.69c17.25-17.25 40.517-26.299 63.973-26.299 7.744 0 15.514.988 23.089 2.992l-53.783 53.782 10.615 53.071 53.07 10.614 53.783-53.782c8.073 30.52-.364 64.117-23.309 87.061-17.021 17.02-39.649 26.394-63.719 26.394s-46.699-9.374-63.72-26.394c-17.021-17.021-26.394-39.65-26.394-63.72s9.375-46.698 26.395-63.719zm-31.382 137.112c3.119 4.025 6.51 7.882 10.169 11.541 3.489 3.489 7.155 6.734 10.977 9.732l-19.772 19.777-21.214-21.214zm-260.176-136.703 20.158-20.159 96.307 47.46 20.29 60.039-29.255 29.255-60.04-20.289zm147.182 398.846c-22.945 22.945-56.54 31.381-87.062 23.308l53.783-53.782-10.615-53.071-53.07-10.614-53.783 53.782c-8.073-30.52.364-64.117 23.309-87.061 17.021-17.02 39.649-26.394 63.719-26.394s46.699 9.374 63.72 26.394c17.021 17.021 26.394 39.65 26.394 63.72s-9.375 46.698-26.395 63.718zm30.945-137.674c-2.998-3.822-6.244-7.489-9.733-10.978-3.659-3.659-7.515-7.048-11.539-10.167l19.845-19.845 21.211 21.211zm156.133 10.503 20.984 20.984-42.427 42.427-20.984-20.984zm102.421 144.684-.104.103c-11.686 11.685-30.698 11.684-42.384 0l-60.164-60.164 42.427-42.427 60.164 60.164c11.686 11.685 11.686 30.699.061 42.324z"/></g></svg>