<svg id="Capa_1" enable-background="new 0 0 512 512" height="512" viewBox="0 0 512 512" width="512" xmlns="http://www.w3.org/2000/svg"><g><path d="m441.827 207.014 17.302-10.259-.018-.03c31.584-18.218 52.889-52.342 52.889-91.349 0-58.105-47.271-105.376-105.376-105.376-39.007 0-73.13 21.305-91.348 52.888l-.031-.018-10.259 17.302c-6.226-1.983-12.546-3.677-18.926-5.071v-34.978h-90.244v34.978c-6.332 1.384-12.604 3.062-18.786 5.026l-17.484-30.285-78.153 45.122 17.513 30.334c-4.783 4.364-9.368 8.949-13.731 13.73l-30.333-17.513-45.123 78.154 30.285 17.485c-1.964 6.181-3.643 12.453-5.027 18.785h-34.977v90.244h34.977c1.384 6.332 3.062 12.604 5.026 18.785l-30.284 17.486 45.122 78.153 30.334-17.514c4.364 4.782 8.95 9.367 13.731 13.731l-17.514 30.334 78.153 45.122 17.486-30.286c6.181 1.965 12.453 3.643 18.785 5.026v34.98h90.244v-34.979c6.332-1.384 12.604-3.062 18.785-5.026l17.486 30.286 78.153-45.122-17.514-30.335c4.782-4.364 9.367-8.949 13.73-13.73l30.336 17.514 45.121-78.153-30.286-17.485c1.964-6.181 3.643-12.453 5.026-18.785h34.979v-90.244h-34.979c-1.393-6.381-3.086-12.701-5.07-18.927zm-35.203-177.014c41.563 0 75.376 33.813 75.376 75.376s-33.813 75.376-75.376 75.376c-41.562 0-75.375-33.813-75.375-75.376s33.813-75.376 75.375-75.376zm-71.871 165.336c17.497 21.645 26.746 47.83 26.746 75.725 0 5.654-.39 11.273-1.166 16.825l-74.273-42.877v-85.762c18.877 7.649 35.752 20.08 48.693 36.089zm117.123 90.848h-30.295c-2.373 20.498-8.22 42.593-16.615 62.119l26.211 15.132-15.122 26.192-26.244-15.152c-12.385 16.594-28.46 32.734-45.459 45.461l15.151 26.243-26.192 15.122-15.133-26.212c-18.958 8.18-41.022 14.148-62.119 16.614v30.297h-30.244v-30.295c-20.497-2.373-42.591-8.219-62.119-16.614l-15.132 26.21-26.192-15.122 15.152-26.244c-16.594-12.385-32.736-28.46-45.461-45.459l-26.242 15.151-15.122-26.192 26.21-15.133c-8.18-18.955-14.147-41.02-16.616-62.118h-30.293v-30.244h30.294c2.372-20.498 8.218-42.593 16.615-62.118l-26.21-15.133 15.122-26.192 26.242 15.151c12.385-16.593 28.461-32.734 45.461-45.461l-15.151-26.242 26.192-15.122 15.131 26.209c18.958-8.178 41.024-14.146 62.12-16.614v-30.295h30.244v30.296c14.658 2.044 30.7 4.863 45.301 10.186-.071 1.582-.113 3.172-.113 4.771 0 10.305 1.494 20.266 4.264 29.687-9.922-4.728-20.362-8.382-31.133-10.826l-18.319-4.157v142.252l123.223 71.136 5.544-17.973c4.427-14.353 6.672-29.302 6.672-44.434 0-22.418-5.061-44.516-14.569-64.575 9.423 2.772 19.387 4.267 29.695 4.267 1.599 0 3.189-.042 4.771-.113 4.938 13.152 8.199 30.749 10.186 45.3h30.295v30.244z"/><path d="m458.949 89.328-21.213-21.213-42.705 42.705-19.519-19.519-21.213 21.213 40.732 40.732z"/><path d="m225.82 120.079-18.319 4.156c-32.753 7.43-62.481 25.982-83.708 52.239-21.55 26.656-33.417 60.247-33.417 94.586 0 15.134 2.245 30.085 6.673 44.437l5.545 17.973 123.226-71.139zm-30 124.93-74.278 42.88c-.775-5.552-1.166-11.173-1.166-16.828 0-27.896 9.249-54.081 26.747-75.726 12.942-16.009 29.819-28.441 48.697-36.09z"/><path d="m117.754 359.644 12.792 13.788c28.413 30.626 68.649 48.19 110.392 48.19 41.744 0 81.981-17.565 110.393-48.193l12.791-13.787-123.182-71.122zm123.184 31.978c-26.977 0-53.172-9.166-74.237-25.598l74.24-42.864 74.237 42.863c-21.067 16.435-47.26 25.599-74.24 25.599z"/></g></svg>