<svg width="24" height="24" version="1.1" viewBox="0 0 24 24" xml:space="preserve" xmlns="http://www.w3.org/2000/svg"><defs><clipPath id="clipPath997"><path d="m0 500h500v-500h-500z"/></clipPath></defs><g transform="matrix(1.3333 0 0 -1.3333 0 666.67)"><g transform="matrix(.10153 0 0 .10153 -16.382 465.81)"><g clip-path="url(#clipPath997)"><g transform="translate(245.46 290.72)"><path d="m0 0c-9.481 0.566-18.628 2.897-27.063 6.833 6.574 11.718 15.785 21.59 27.063 28.577zm0-33.247h-38.288c0.514 11.469 3.071 22.428 7.389 32.353 9.613-4.518 20.067-7.154 30.899-7.731zm0-33.226c-10.832-0.58-21.286-3.216-30.899-7.735-4.318 9.925-6.875 20.887-7.389 32.356h38.288zm0-44.038c-11.278 6.989-20.489 16.859-27.062 28.577 8.434 3.935 17.581 6.267 27.062 6.832zm-44.895 16.892c3.103 2.74 6.405 5.183 9.858 7.345 4.851-8.673 11.018-16.438 18.302-22.976-10.543 3.134-20.116 8.533-28.16 15.631m-25.233 51.767h22.755c0.533-13.016 3.47-25.453 8.467-36.69-4.267-2.617-8.328-5.623-12.121-9.02-11.049 12.265-18.102 28.187-19.101 45.71m19.101 54.315c3.793-3.398 7.854-6.406 12.121-9.02-4.997-11.236-7.934-23.674-8.467-36.69h-22.755c0.999 17.52 8.052 33.446 19.101 45.71m34.292 21.686c-7.284-6.536-13.451-14.304-18.302-22.977-3.454 2.163-6.755 4.605-9.858 7.345 8.044 7.102 17.617 12.5 28.16 15.632m25.811-42.774c10.824 0.577 21.271 3.21 30.88 7.723 4.326-9.933 6.891-20.892 7.408-32.345h-38.288zm0 44.032c11.265-6.987 20.467-16.87 27.04-28.583-8.428-3.933-17.567-6.258-27.04-6.824zm44.895-16.89c-3.108-2.743-6.415-5.191-9.876-7.356-4.854 8.678-11.025 16.455-18.309 22.996 10.553-3.132 20.134-8.533 28.185-15.64m25.233-51.764h-22.755c-0.535 12.996-3.482 25.432-8.488 36.676 4.276 2.619 8.342 5.631 12.143 9.034 11.047-12.264 18.102-28.19 19.1-45.71m-44.113-72.527c-3.006-1.351-6.104-2.532-9.305-3.482 3.079 2.765 5.946 5.762 8.611 8.945l-1.642 12.953c-6.219-9.337-14.209-17.275-23.679-23.15v35.406c7.893-0.471 15.548-2.182 22.759-5.009l-1.216 9.595c-6.908 2.264-14.133 3.644-21.543 4.043v24.621h38.288c-0.317-7.023-1.412-13.858-3.202-20.386l7.592-6.25c2.693 8.449 4.313 17.394 4.695 26.636h22.755c-0.808-14.19-5.59-27.327-13.245-38.326l6.655-5.479c9.643 13.606 15.329 30.201 15.329 48.108 0 21.531-8.202 41.183-21.646 55.996l0.103 0.104-3.07 3.051c-13.611 13.53-31.078 21.789-49.899 23.775-0.14 0.014-0.279 0.036-0.418 0.05-1.15 0.115-2.303 0.196-3.462 0.263-0.259 0.018-0.515 0.045-0.776 0.057-0.484 0.025-0.972 0.025-1.458 0.042-1.868 0.148-3.792 0.252-5.774 0.277-0.598 0.011-1.168-0.135-1.714-0.353-0.102-5e-3 -0.203-0.017-0.304-0.023-1.158-0.067-2.313-0.148-3.461-0.263-0.14-0.014-0.279-0.036-0.419-0.05-18.821-1.986-36.288-10.245-49.899-23.775l-3.071-3.051 0.104-0.104c-13.444-14.813-21.646-34.465-21.646-55.996 0-21.534 8.202-41.186 21.646-55.996l-0.104-0.105 3.071-3.053c13.611-13.528 31.078-21.787 49.899-23.772 0.14-0.015 0.279-0.037 0.419-0.051 1.148-0.115 2.303-0.196 3.461-0.266 0.101-5e-3 0.202-0.017 0.304-0.022 0.531-0.211 1.086-0.351 1.658-0.351h0.056c1.982 0.026 3.906 0.129 5.774 0.278 0.486 0.016 0.974 0.016 1.458 0.039 0.261 0.014 0.517 0.042 0.776 0.056 1.159 0.07 2.312 0.151 3.462 0.266 0.139 0.014 0.278 0.036 0.418 0.051 7.9 0.832 15.556 2.784 22.795 5.757z"/></g><g transform="translate(323.28 193.35)"><path d="m0 0-42.445 34.936 6.918-54.538 12.5 6.898 11.669-21.15 10.527 5.807-11.669 21.15z"/></g></g></g></g></svg>
