<?xml version="1.0" encoding="UTF-8" standalone="no"?>
<svg
   width="150"
   height="200"
   version="1.1"
   viewBox="0 0 150 200"
   id="svg62"
   sodipodi:docname="repair-cpu4.svg"
   inkscape:version="1.1.1 (3bf5ae0d25, 2021-09-20)"
   xmlns:inkscape="http://www.inkscape.org/namespaces/inkscape"
   xmlns:sodipodi="http://sodipodi.sourceforge.net/DTD/sodipodi-0.dtd"
   xmlns="http://www.w3.org/2000/svg"
   xmlns:svg="http://www.w3.org/2000/svg">
  <defs
     id="defs66" />
  <sodipodi:namedview
     id="namedview64"
     pagecolor="#ffffff"
     bordercolor="#666666"
     borderopacity="1.0"
     inkscape:pageshadow="2"
     inkscape:pageopacity="0.0"
     inkscape:pagecheckerboard="0"
     showgrid="false"
     inkscape:zoom="1.6404877"
     inkscape:cx="44.803749"
     inkscape:cy="83.511749"
     inkscape:window-width="1366"
     inkscape:window-height="699"
     inkscape:window-x="0"
     inkscape:window-y="0"
     inkscape:window-maximized="1"
     inkscape:current-layer="svg62" />
  <g
     id="g870"
     transform="matrix(0.87479806,0,0,0.87479806,-4.3354742,25.189554)">
    <path
       d="m 117.55659,115.06601 c 0,0 2.85678,3.69374 3.49357,4.97751 1.84324,-2.84428 8.93169,-5.15309 15.46067,-9.83971 1.10216,-0.64642 7.72721,4.68662 7.72721,4.68662 0,0 -13.87733,20.33463 -23.46215,21.25824 -4.95258,0.46637 -15.26777,-10.67986 -15.26777,-10.67986 l 12.04847,-10.4028"
       fill="#f1bfad"
       style="stroke-width:4.61735"
       id="path1210" />
    <path
       d="M 61.454369,77.872313 C 61.873162,84.1381 59.333636,89.55889 59.333636,89.55889 l 2.944951,7.013817 8.232135,3.356783 7.228875,3.14443 4.678648,-7.323076 -4.469477,-13.70418 -8.069716,-6.196524 c 0,0 -8.424683,0.244841 -8.424683,2.022415"
       fill="#c59d8d"
       style="stroke-width:4.61735"
       id="path1213" />
    <path
       d="m 83.756733,85.283347 c -4.214593,11.312562 18.153917,38.862913 19.191117,41.390973 3.71175,3.80006 18.53451,-6.86144 16.14843,-12.34214 0,0 -8.38555,-9.71504 -15.80559,-18.908184 C 97.156506,88.174689 93.159742,80.97629 83.757079,85.284386"
       fill="#f47415"
       style="stroke-width:4.61735"
       id="path1216" />
    <path
       d="m 79.012286,90.858938 c 0,0 2.667453,5.859565 -1.64331,8.278887 -5.692298,3.657035 -18.032708,-9.571662 -18.032708,-9.571662 -0.829759,1.939301 -5.477932,5.522259 -5.477932,5.522259 l -0.86761,4.506532 -5.063052,1.085056 -3.668462,2.81197 c 0,0 1.704745,24.98904 1.518673,27.9441 -0.183891,2.93203 13.881144,16.83032 11.996178,29.71721 -1.342263,2.40103 6.602747,12.60984 18.651218,11.13698 -0.973789,-5.06998 4.033126,-7.02317 7.036327,-8.66225 8.007726,-4.38636 15.626546,-5.7439 15.626546,-5.7439 0,0 2.938476,-37.21101 2.938476,-45.21769 0,-15.70828 -19.411369,-26.129787 -19.411369,-26.129787 l -3.603356,4.321949"
       fill="#f7911c"
       style="stroke-width:4.61735"
       id="path1219" />
    <path
       d="m 74.025422,82.859177 c 21.391222,8.491175 25.077692,26.983783 25.077692,26.983783 l -4.238141,3.79556 c 0,0 -5.660091,-22.232412 -25.655338,-27.062398 0.01732,-1.403663 3.208597,-3.319866 4.815787,-3.716945"
       fill="#21334a"
       style="stroke-width:4.61735"
       id="path1222" />
    <path
       d="m 18.927501,41.371239 -3.558682,-2.04548 -0.0018,2.885836 c 0.889289,1.911562 1.864949,3.582923 2.867828,5.078982 l 2.144767,-2.525708 -1.452182,-3.393734"
       fill="#7c7d7e"
       style="stroke-width:4.61735"
       id="path1225" />
    <path
       d="m 114.57832,110.77176 -8.7277,-10.84608 10.40696,-6.011941 8.71697,10.859931 -10.39657,5.99809"
       fill="#bbbcbd"
       style="stroke-width:4.61735"
       id="path1228" />
    <path
       d="m 103.35788,79.222922 -0.0312,0.01731 z M 15.862657,22.802097 c 1.834474,0.844996 3.08067,1.768466 3.08067,1.768466 0,0 8.221053,5.836363 11.736446,14.780165 0,0 1.744468,5.818008 10.796907,11.044865 0,0 49.248745,28.447635 58.013851,33.503414 0.777119,-2.063973 2.038099,-3.582923 3.626909,-4.520384 l 12.90489,2.105496 c 7.94366,5.559314 14.13187,16.885729 14.13187,26.318871 l -0.0377,0.89116 -4.64471,9.37322 10.53336,-6.0857 -0.0138,-0.0173 c 2.82121,-1.66686 4.56714,-5.1853 4.55778,-10.16731 0.003,-10.089054 -7.08446,-22.352583 -15.81597,-27.385507 -4.32195,-2.498003 -8.23352,-2.7381 -11.08539,-1.140502 l -5.88207,3.403015 C 95.127372,69.369329 51.871175,44.394144 51.871175,44.394144 42.825904,39.17179 41.079809,33.344777 41.079809,33.344777 37.560607,24.396473 29.343363,18.564613 29.343363,18.564613 c 0,0 -6.933473,-5.189802 -12.248985,-2.364051 l -0.01039,-0.01731 -10.5371744,6.085706 9.3122764,0.535603"
       fill="#bbbcbd"
       style="stroke-width:4.61735"
       id="path1231" />
    <g
       transform="matrix(4.6173512,0,0,-4.6173512,-296.45702,849.43956)"
       fill="#8f9295"
       id="g24">
      <path
         d="m 67.449,172.91 -2.1683,1.252 2.2527,1.299 2.1676,-1.252 -2.252,-1.299"
         id="path1288" />
      <path
         d="m 89.379,164.55 v -0.92 l -2.2539,-1.302 -4e-4,2.52 1.8918,0.168 0.3625,-0.466"
         id="path1285" />
      <path
         d="m 90.904,161.06 4e-4,-0.922 -1.8891,-0.168 z"
         id="path1282" />
    </g>
    <path
       d="m 105.81668,88.319444 8.73498,-0.775734 8.72078,10.846082 -0.003,11.635668 -8.72251,0.77574 -8.7277,-10.846086 z M 30.684726,39.361599 C 27.16968,30.417797 18.948281,24.581435 18.948281,24.581435 c 0,0 -8.617925,-6.478075 -13.9923096,-1.080453 v 2.899689 l 10.0062806,5.77645 5.4059,12.577633 -5.400359,6.339551 -10.0118216,-5.780953 0.00322,2.890477 C 10.343619,59.811794 18.948383,63.293248 18.948383,63.293248 l -0.0018,-0.02424 c 0,0 8.232135,3.647683 11.747528,-1.242075 0,0 1.740277,-3.790709 10.782015,1.417516 0,0 50.027943,28.844506 58.197396,33.544972 2.331768,8.066599 8.011528,16.100639 14.676268,19.946759 8.73324,5.03743 15.81078,0.95118 15.81078,-9.12388 -0.002,-10.098052 -7.08481,-22.352578 -15.81078,-27.385501 C 107.5046,76.46501 101.68797,78.150432 99.496524,83.908251 90.734188,78.852125 41.482672,50.404836 41.482672,50.404836 32.430475,45.17798 30.685765,39.360318 30.685765,39.360318"
       fill="#a4a6a9"
       style="stroke-width:4.61735"
       id="path1279" />
    <path
       d="m 42.822892,54.207909 -0.09247,0.831144 -0.01385,0.07376 c 0.01039,1.99007 1.41059,4.418916 3.131023,5.42079 l 46.848817,27.020838 0.766938,0.332458 c -0.32657,1.366747 -1.560196,1.823841 -3.040983,0.97888 L 43.601258,61.82659 c -1.722269,-0.997372 -3.121777,-3.426079 -3.127317,-5.41144 l 0.0069,-0.07861 c -0.01732,-1.676106 0.999208,-2.516462 2.346527,-2.128594"
       fill="#8f9295"
       style="stroke-width:4.61735"
       id="path1276" />
    <path
       d="m 42.822892,54.207909 0.764652,0.327956 46.838428,27.03469 c 1.720884,0.992732 3.129638,3.426079 3.132893,5.416288 l -0.0033,0.07861 -0.09731,0.821898 L 92.691317,87.554893 45.8425,60.534056 C 44.122067,59.532112 42.720723,57.10337 42.711477,55.113265 l 0.01385,-0.07376 0.09246,-0.831109"
       fill="#bbbcbd"
       style="stroke-width:4.61735"
       id="path1273" />
    <path
       d="m 70.11212,173.02687 c 6.830618,-18.06318 -0.912839,-46.66181 -0.912839,-46.66181 0,0 21.054263,-8.61134 30.922019,-19.15267 3.97148,27.16386 0.52497,48.03319 0.52497,48.03319 l -4.116238,6.94456 -12.306126,10.53683 c 0,0 -15.953463,6.27028 -14.11144,0.30025"
       fill="#21334a"
       style="stroke-width:4.61735"
       id="path1270" />
    <path
       d="m 53.870181,95.10712 c 23.16433,9.93667 24.81138,28.84935 24.81138,28.84935 l -6.830618,2.6873 c 0,0 -1.29333,-21.13357 -23.911321,-25.94485 0.02078,-1.417552 4.328875,-5.175951 5.930559,-5.591523"
       fill="#21334a"
       style="stroke-width:4.61735"
       id="path1267" />
    <path
       id="path4348"
       style="fill:#17202e;fill-opacity:1;stroke-width:4.61735"
       d="m 100.58398,167.97266 c -6.24645,-0.32159 -29.876949,12.34765 -29.876949,12.34765 0,0 1.943082,10.18077 3.744141,20.8711 h 25.822268 c 1.52674,-9.25775 2.63048,-20.37776 1.80273,-32.21094 -0.0633,-0.65102 -0.59984,-0.96187 -1.49219,-1.00781 z" />
    <path
       id="path4653"
       style="fill:#21334a;fill-opacity:1;stroke-width:4.61735"
       d="m 100.65625,155.26172 c 0,0 -20.072533,15.0849 -28.066406,14.67383 -9.983079,-0.50793 -14.800782,-8.78711 -14.800782,-8.78711 0,0 -5.046618,9.23377 -6.53125,14.52539 -0.656827,2.34008 -1.098352,13.52921 -1.603515,25.51758 h 27.738281 c 0.817145,-3.45259 1.440962,-6.13019 1.564453,-6.47657 11.220444,-5.7903 23.365239,-18.16437 23.365239,-20.30664 0,-2.7381 -0.52645,-11.85367 -1.66602,-19.14453 z" />
    <path
       d="m 84.934188,58.225105 c 8.738787,7.503152 5.396895,17.878254 5.396895,17.878254 0,0 -2.162775,16.705648 -3.619978,18.312526 -1.457238,1.592992 -4.312599,2.507215 -5.293695,2.576477 -2.923688,0.286399 -12.915632,-6.552185 -14.376713,-8.357499 -1.461394,-1.810024 -1.170978,-5.245211 -1.170978,-5.245211 0,0 -4.763148,-0.378621 -5.475854,-6.902997 -0.497751,-4.50203 0.212981,-7.346274 0.212981,-7.346274 l 3.753307,-8.218976 7.97552,-4.945306 h 6.505779 c 0,0 5.00695,1.431403 6.092632,2.24866"
       fill="#f1bfad"
       style="stroke-width:4.61735"
       id="path1249" />
    <path
       d="m 60.796381,78.449609 c 0,0 -0.398499,-7.84496 3.641796,-4.423418 1.303961,1.375994 0.784496,2.174793 1.760605,3.781706 0.973789,1.606843 3.383588,2.562624 3.995033,1.90235 0.600709,-0.641817 1.266074,-7.697086 0.551775,-10.02429 -0.715684,-2.317887 -4.716742,-4.146369 -1.951283,-7.239956 2.766705,-3.08441 13.343324,5.905624 16.896118,2.419494 C 88.127478,62.215116 81.931923,43.69037 64.250719,54.559656 51.69906,62.875598 60.796485,78.449851 60.796485,78.449851"
       fill="#593217"
       style="stroke-width:4.61735"
       id="path1246" />
    <path
       d="m 74.440995,182.41187 c 1.049977,1.96237 -2.063038,4.0172 -4.416838,5.7671 -1.719013,1.28824 -5.405553,-0.16173 -9.669668,-1.10816 -6.698328,-2.48875 -6.879101,-5.36538 -12.408979,-10.18116 -2.874754,-1.37136 2.467528,-7.06923 6.990959,-7.93258 3.59262,0.90498 10.030177,-0.10632 10.77128,6.50578 1.293295,0.94653 7.685658,4.96816 8.733246,6.94906"
       fill="#151412"
       style="stroke-width:4.61735"
       id="path1243" />
    <path
       d="m 35.792799,152.97552 c 7.589384,3.44454 9.245438,8.69896 19.134666,16.01303 -7.079269,1.83309 -6.99096,7.93258 -6.99096,7.93258 -6.419202,-3.50916 -29.247611,-13.18714 -27.687484,-22.1957 1.190337,-4.8944 1.657163,-10.9479 6.534523,-21.06431 4.310867,0.43403 12.109768,5.49005 11.865966,9.57166 -0.06338,1.00655 -3.026195,9.60872 -2.856746,9.74274"
       fill="#f1bfad"
       style="stroke-width:4.61735"
       id="path1240" />
    <path
       d="m 50.37245,104.11118 c -14.429352,-8.144865 -28.820611,35.36518 -30.019882,38.08717 -1.408755,5.11604 13.857248,12.07445 17.387186,7.23996 5.562431,-9.43799 7.640291,-15.90221 13.587126,-23.88084 7.050179,-9.4702 2.126274,-20.59783 -0.954395,-21.44768"
       fill="#f47415"
       style="stroke-width:4.61735"
       id="path1237" />
    <path
       d="m 136.60364,89.947101 c 1.34365,-0.02424 7.81864,5.148244 8.1885,9.931824 0.36248,4.691115 0.4599,12.970005 -0.55178,14.992455 -1.01718,2.03623 -8.14555,3.02896 -8.55628,-3.21369 -1.01025,-4.03555 -4.1287,-4.17407 -4.78739,-9.37773 -0.65473,-5.217504 0.46357,-10.6847 5.70719,-12.33279"
       fill="#151412"
       style="stroke-width:4.61735"
       id="path1234" />
  </g>
</svg>
